<svg xmlns="http://www.w3.org/2000/svg" viewBox="0 0 128 128">
  <rect x="4" y="4" width="120" height="120" rx="28" fill="#141413" stroke="#D97757" stroke-width="8" />
  <g transform="translate(24, 24) scale(3.333)" fill="none" stroke="#D97757" stroke-width="2" stroke-linecap="round" stroke-linejoin="round">
    <path d="m21.64 3.64-1.28-1.28a1.21 1.21 0 0 0-1.72 0L2.36 18.64a1.21 1.21 0 0 0 0 1.72l1.28 1.28a1.2 1.2 0 0 0 1.72 0L21.64 5.36a1.2 1.2 0 0 0 0-1.72"></path>
    <path d="m14 7 3 3"></path>
    <path d="M5 6v4"></path>
    <path d="M19 14v4"></path>
    <path d="M10 2v2"></path>
    <path d="M7 8H3"></path>
    <path d="M21 16h-4"></path>
    <path d="M11 3H9"></path>
  </g>
</svg>
